<?xml version="1.0" standalone="no"?><!DOCTYPE svg PUBLIC "-//W3C//DTD SVG 1.1//EN" "http://www.w3.org/Graphics/SVG/1.1/DTD/svg11.dtd"><svg t="1779244985786" class="icon" viewBox="0 0 1024 1024" version="1.1" xmlns="http://www.w3.org/2000/svg" p-id="1662" xmlns:xlink="http://www.w3.org/1999/xlink" width="200" height="200"><path d="M480 224h-189.696A116.053333 116.053333 0 0 1 64 188.017778a115.996444 115.996444 0 0 1 226.304-35.982222h213.703111c26.510222 0 47.985778 21.475556 47.985778 47.985777v592.014223h250.026667v-76.003556c0-6.627556 7.509333-10.410667 12.8-6.456889l0.199111 0.142222 141.909333 112.014223c4.010667 3.128889 4.096 9.187556 0.199111 12.430222l-0.199111 0.170666-141.909333 111.985778a8.021333 8.021333 0 0 1-12.999111-6.058666v-76.231112h-274.033778a48.014222 48.014222 0 0 1-47.985778-48.014222V224zM179.996444 143.985778a44.003556 44.003556 0 1 0 0 88.007111 44.003556 44.003556 0 0 0 0-88.007111z" p-id="1663"></path></svg>