<?xml version="1.0" standalone="no"?><!DOCTYPE svg PUBLIC "-//W3C//DTD SVG 1.1//EN" "http://www.w3.org/Graphics/SVG/1.1/DTD/svg11.dtd"><svg t="1779243118464" class="icon" viewBox="0 0 1024 1024" version="1.1" xmlns="http://www.w3.org/2000/svg" p-id="6231" xmlns:xlink="http://www.w3.org/1999/xlink" width="200" height="200"><path d="M660.48 537.6h158.72c10.24 46.08 51.2 76.8 97.28 76.8 56.32 0 102.4-46.08 102.4-102.4 0-56.32-46.08-102.4-102.4-102.4-46.08 0-87.04 30.72-97.28 76.8h-158.72c-10.24-46.08-51.2-76.8-97.28-76.8V128h261.12c10.24 46.08 51.2 76.8 97.28 76.8 56.32 0 102.4-46.08 102.4-102.4 0-56.32-46.08-102.4-102.4-102.4-46.08 0-87.04 30.72-97.28 76.8H512v348.16c-25.6 10.24-40.96 35.84-46.08 61.44H302.08c-10.24-71.68-71.68-128-148.48-128C66.56 358.4 0 424.96 0 512c0 87.04 66.56 153.6 153.6 153.6 76.8 0 138.24-56.32 148.48-128H460.8c5.12 25.6 25.6 51.2 46.08 61.44v348.16h312.32c10.24 46.08 51.2 76.8 97.28 76.8 56.32 0 102.4-46.08 102.4-102.4 0-56.32-46.08-102.4-102.4-102.4-46.08 0-87.04 30.72-97.28 76.8h-256V614.4c46.08 0 87.04-30.72 97.28-76.8z m261.12-76.8c30.72 0 51.2 20.48 51.2 51.2 0 30.72-20.48 51.2-51.2 51.2-30.72 0-51.2-20.48-51.2-51.2 0-30.72 20.48-51.2 51.2-51.2z m-768 153.6C97.28 614.4 51.2 568.32 51.2 512c0-56.32 46.08-102.4 102.4-102.4 56.32 0 102.4 46.08 102.4 102.4 0 56.32-46.08 102.4-102.4 102.4z" fill="#666666" p-id="6232"></path></svg>