<?xml version="1.0" standalone="no"?><!DOCTYPE svg PUBLIC "-//W3C//DTD SVG 1.1//EN" "http://www.w3.org/Graphics/SVG/1.1/DTD/svg11.dtd"><svg t="1779245104262" class="icon" viewBox="0 0 1024 1024" version="1.1" xmlns="http://www.w3.org/2000/svg" p-id="8227" data-spm-anchor-id="a313x.search_index.0.i7.60b33a81oXNDRJ" xmlns:xlink="http://www.w3.org/1999/xlink" width="200" height="200"><path d="M128 768a128 128 0 1 1 0 256 128 128 0 0 1 0-256z m0 64a64 64 0 1 0 0 128 64 64 0 0 0 0-128z" p-id="8228"></path><path d="M896 0l128 192h-256z" p-id="8229"></path><path d="M944 128c0 320.448-146.944 473.408-423.744 433.856l-16.128-2.56c-221.76-36.928-323.456 42.752-328 257.536L176 832h-96c0-280.128 148.672-409.6 422.912-369.984l16.96 2.624c219.84 36.672 323.584-61.44 328-319.232L848 128h96z" p-id="8230"></path></svg>